<svg version="1.2" xmlns="http://www.w3.org/2000/svg" viewBox="0 0 482 117" width="482" height="117"><style></style><path  d="m448.5 2.7c-13.6 1.2-17.5 3.5-17.5 10.2 0 3.3 0 3.4 3.8 2.7 2-0.4 6.3-1 9.4-1.3 5.6-0.6 5.7-0.5 6.4 2.3 1.1 4.1 1.1 21.6 0 36.5-1.1 15.5-0.4 17.4 5.6 16.6 2.3-0.3 5-1.4 6-2.5 1.9-1.9 1.9-2-0.8-9.7l-2.7-7.7 1.4-18.1 1.4-18.2 7.3-0.5c6.2-0.4 7.7-0.9 9.3-2.9 1-1.3 1.9-3.6 1.9-5.2v-2.9l-13.7 0.2c-7.6 0.1-15.6 0.3-17.8 0.5z"/><path  d="m402 4.5c-16.3 4.6-24.5 23.7-13.7 31.9 1.8 1.4 8.4 4.1 14.7 6 11.3 3.4 14 5.1 14 8.9 0 8.7-14.3 11.8-26.4 5.8-5.6-2.8-6.2-2.9-7.3-1.4-1.8 2.3-1.6 7.4 0.3 10.1 2.2 3.2 6.6 5.1 13.2 5.8 15.7 1.7 29.4-9.3 29.4-23.7 0-9.5-3.9-12.8-20-17-9.8-2.5-13.2-4.9-13.2-9 0-6.2 8.8-8.4 21-5.3 5.5 1.4 6.4 1.4 8.4 0 4.5-2.9 3.8-8.4-1.3-11-4.5-2.4-12.8-2.8-19.1-1.1z"/><path  d="m360.5 7.3l-2.6 2.2 2 7.5c2.4 8.6 2.7 19 1 37-0.6 6.5-0.9 13-0.5 14.4 0.9 3.8 4.1 5.1 8.7 3.7 5.1-1.5 5.8-4.3 2.8-10.8-1.8-4-2.2-6.5-2.1-14.8 0-5.5 0.5-14 1.2-18.9 2.3-18.3-2.3-27.4-10.5-20.3z"/><path  d="m314.6 7.6c-6.4 2.3-6.5 2.6-4 10.1 2.5 7.3 3 19.4 1.5 35.8-1.3 14.7 0.6 18.5 10.3 20.5 12.5 2.6 29.7-3.8 29.6-11-0.1-4.1-1.4-4.4-10.6-2-9.7 2.4-15.3 2.3-18.6-0.7-2-1.7-2-2.4-1.3-19.3 1-21 1-24.4 0.1-30.4-0.8-5-1.2-5.2-7-3z"/><path fill-rule="evenodd" d="m242 9c16 0 25.6 9 27.5 25.6 1.4 12.7-3.4 26.4-12.1 34.4-7 6.3-13.1 8.4-23 7.8-9.4-0.6-14.2-3.7-18-11.4-3.2-6.5-3.5-16.9-0.8-26.5 1.8-6.2 1.8-6.3-0.4-7.7-2.7-1.7-3-7.1-0.7-10.6 2.2-3.4 8.2-7.3 14.6-9.6 3.5-1.2 8-1.9 12.9-2zm-7.3 12.3c-5.6 1.7-8.4 5-10.7 12.4-5.2 16.8 0.3 29.9 13.4 31.8 13.1 2 24.6-8.5 24.6-22.4 0-11.8-4.4-19-13.3-21.6-5.9-1.7-8.8-1.8-14-0.2z"/><path fill-rule="evenodd" d="m203.5 36c2.1 17.7-7.5 35.4-22.4 41-7.1 2.6-17.9 3.2-22.7 1.2-5.3-2.2-5.8-4.4-4.8-19.4 1.3-20.1 1.1-24-1.5-29.7-1.6-3.2-2.1-5.8-1.7-7.4 0.9-3.6 6-6.9 13.6-8.9 21.8-5.7 37.1 3.3 39.5 23.2zm-28-12.8c-4.9-0.1-9.6 0.1-10.3 0.6-1.6 1.1-3.1 15.8-3.2 30.4 0 12 1.2 13.8 8.8 13.8 9.9-0.1 18.8-5.4 22.8-13.6 2.2-4.5 2.6-6.4 2.2-11.6-0.5-7.8-2.9-12.9-7.6-16.5-3.3-2.5-4.6-2.8-12.7-3.1z"/><path fill-rule="evenodd" d="m85 14.4c11.7 0.4 18.4 4.6 23.2 14.5 2 4 2.3 6.1 2.3 15.6 0 9.9-0.3 11.6-2.8 16.9-6.1 13.1-14.7 19.6-27.2 20.4-8.8 0.5-13.4-0.8-18.6-5.5-6.6-6-8.6-17.6-5.3-30.9 1.6-6.4 1.6-6.6-0.5-9.4-2.9-4-2.6-7.3 1-11.4 3.1-3.6 11.3-8.2 17.2-9.7 1.8-0.4 6.6-0.7 10.7-0.5zm-16.5 17.4c-3.2 4.9-5.8 15.4-5.3 21.2 1.3 13.6 12.2 20.8 25.2 16.7 9.3-3 14.8-11.2 14.8-22.2q0-14.3-10.2-19.5c-8.8-4.5-20.2-2.8-24.5 3.8z"/><path  d="m18 17c-12.2 1.1-14 1.7-15.6 5.6-0.8 1.8-1.4 4.3-1.4 5.5 0 1.9 0.4 2.1 3.3 1.5 6.9-1.5 15.4-1.9 16.1-0.8 1.5 2.5 1.8 18.3 0.6 33.7-1.1 15-1.1 16.7 0.4 19 2.1 3.1 6.3 3.3 10 0.4 3.1-2.4 3.2-3.7 0.7-9.2-2.9-6.3-3.2-11.7-1.8-29.2l1.2-16 7.1-0.5c7.8-0.5 9.5-1.5 11.5-6.1 1-2.6 1-3.2-0.2-4-1.6-1-19.4-0.9-31.9 0.1z"/><path  d="m444.5 77.6c-1.9 0.4-32.5 2.6-99.5 7.4-15.1 1.1-29.1 2.2-31 2.5-1.9 0.3-16.3 1.4-32 2.5-15.7 1.1-30.7 2.2-33.5 2.5-2.7 0.3-14.4 1.2-26 2-25.1 1.7-92.2 6.7-127 9.5-13.7 1.1-34.4 2.6-46 3.5-25 1.8-27 2.2-27 5.6v2.4l11-0.1c6.1-0.1 18.9-0.9 28.5-1.7 9.6-0.9 21.8-1.9 27-2.2 5.2-0.3 17.8-1.3 28-2.1 10.2-0.8 28.2-2.1 40-2.9 11.8-0.8 26.5-1.9 32.5-2.5 6.1-0.5 20.5-1.6 32-2.5 11.6-0.8 32.7-2.4 47-3.5 14.3-1.1 32.5-2.5 40.5-3 8-0.6 23.1-1.7 33.5-2.5 10.5-0.8 28.9-2.1 41-3 12.1-0.8 23.6-1.7 25.5-2 1.9-0.3 12.7-1.2 24-2 11.3-0.8 21.5-1.7 22.8-2.1 2.6-0.7 3.1-4.9 0.6-5.8-1.6-0.6-8.4-0.6-11.9 0z"/></svg>